<svg width="192" height="56" viewBox="0 0 192 56" fill="none" xmlns="http://www.w3.org/2000/svg">
<path d="M163 8C151.96 8 143 16.96 143 28C143 39.04 151.96 48 163 48C174.04 48 183 39.04 183 28C183 16.96 174.04 8 163 8ZM163 44C154.16 44 147 36.84 147 28C147 19.16 154.16 12 163 12C171.84 12 179 19.16 179 28C179 36.84 171.84 44 163 44Z" fill="#821A1A"/>
<path d="M58.2578 18.9375V36H55.0352V18.9375H58.2578ZM65.1367 26.3086V28.8516H57.4141V26.3086H65.1367ZM66.0391 18.9375V21.4805H57.4141V18.9375H66.0391ZM74.582 33.3047V27.457C74.582 27.0273 74.5078 26.6562 74.3594 26.3438C74.2109 26.0312 73.9844 25.7891 73.6797 25.6172C73.375 25.4453 72.9883 25.3594 72.5195 25.3594C72.1055 25.3594 71.7422 25.4297 71.4297 25.5703C71.125 25.7109 70.8906 25.9102 70.7266 26.168C70.5625 26.418 70.4805 26.707 70.4805 27.0352H67.375C67.375 26.5117 67.5 26.0156 67.75 25.5469C68 25.0703 68.3555 24.6484 68.8164 24.2812C69.2852 23.9062 69.8438 23.6133 70.4922 23.4023C71.1484 23.1914 71.8828 23.0859 72.6953 23.0859C73.6562 23.0859 74.5117 23.25 75.2617 23.5781C76.0195 23.8984 76.6133 24.3828 77.043 25.0312C77.4805 25.6797 77.6992 26.4961 77.6992 27.4805V33.0117C77.6992 33.6445 77.7383 34.1875 77.8164 34.6406C77.9023 35.0859 78.0273 35.4727 78.1914 35.8008V36H75.0391C74.8906 35.6797 74.7773 35.2734 74.6992 34.7812C74.6211 34.2812 74.582 33.7891 74.582 33.3047ZM75.0156 28.2773L75.0391 30.1172H73.082C72.5977 30.1172 72.1719 30.168 71.8047 30.2695C71.4375 30.3633 71.1367 30.5039 70.9023 30.6914C70.668 30.8711 70.4922 31.0898 70.375 31.3477C70.2578 31.5977 70.1992 31.8828 70.1992 32.2031C70.1992 32.5156 70.2695 32.7969 70.4102 33.0469C70.5586 33.2969 70.7695 33.4961 71.043 33.6445C71.3242 33.7852 71.6523 33.8555 72.0273 33.8555C72.5742 33.8555 73.0508 33.7461 73.457 33.5273C73.8633 33.3008 74.1797 33.0273 74.4062 32.707C74.6328 32.3867 74.7539 32.082 74.7695 31.793L75.6602 33.1289C75.5508 33.4492 75.3867 33.7891 75.168 34.1484C74.9492 34.5078 74.668 34.8438 74.3242 35.1562C73.9805 35.4688 73.5664 35.7266 73.082 35.9297C72.5977 36.1328 72.0352 36.2344 71.3945 36.2344C70.5742 36.2344 69.8398 36.0703 69.1914 35.7422C68.543 35.4141 68.0312 34.9648 67.6562 34.3945C67.2812 33.8242 67.0938 33.1758 67.0938 32.4492C67.0938 31.7773 67.2188 31.1836 67.4688 30.668C67.7188 30.1523 68.0898 29.7188 68.582 29.3672C69.0742 29.0078 69.6836 28.7383 70.4102 28.5586C71.1445 28.3711 71.9844 28.2773 72.9297 28.2773H75.0156ZM83.7695 18V36H80.6641V18H83.7695ZM93.6953 32.5312C93.6953 32.2656 93.625 32.0273 93.4844 31.8164C93.3438 31.6055 93.0781 31.4141 92.6875 31.2422C92.3047 31.0625 91.7422 30.8945 91 30.7383C90.3438 30.5977 89.7383 30.4219 89.1836 30.2109C88.6289 30 88.1523 29.7461 87.7539 29.4492C87.3555 29.1445 87.043 28.7891 86.8164 28.3828C86.5977 27.9688 86.4883 27.4922 86.4883 26.9531C86.4883 26.4297 86.6016 25.9375 86.8281 25.4766C87.0547 25.0078 87.3828 24.5977 87.8125 24.2461C88.2422 23.8867 88.7656 23.6055 89.3828 23.4023C90 23.1914 90.6953 23.0859 91.4688 23.0859C92.5469 23.0859 93.4727 23.2617 94.2461 23.6133C95.0273 23.9648 95.625 24.4492 96.0391 25.0664C96.4531 25.6758 96.6602 26.3633 96.6602 27.1289H93.5664C93.5664 26.793 93.4883 26.4883 93.332 26.2148C93.1836 25.9414 92.9531 25.7227 92.6406 25.5586C92.3281 25.3867 91.9336 25.3008 91.457 25.3008C91.0273 25.3008 90.6641 25.3711 90.3672 25.5117C90.0781 25.6523 89.8594 25.8359 89.7109 26.0625C89.5625 26.2891 89.4883 26.5391 89.4883 26.8125C89.4883 27.0156 89.5273 27.1992 89.6055 27.3633C89.6914 27.5195 89.8281 27.6641 90.0156 27.7969C90.2031 27.9297 90.457 28.0508 90.7773 28.1602C91.1055 28.2695 91.5078 28.375 91.9844 28.4766C92.9297 28.6641 93.7539 28.9141 94.457 29.2266C95.168 29.5312 95.7227 29.9375 96.1211 30.4453C96.5195 30.9531 96.7188 31.6016 96.7188 32.3906C96.7188 32.9531 96.5977 33.4688 96.3555 33.9375C96.1133 34.3984 95.7617 34.8008 95.3008 35.1445C94.8398 35.4883 94.2891 35.7578 93.6484 35.9531C93.0078 36.1406 92.2852 36.2344 91.4805 36.2344C90.3164 36.2344 89.332 36.0273 88.5273 35.6133C87.7227 35.1914 87.1133 34.6602 86.6992 34.0195C86.2852 33.3711 86.0781 32.6992 86.0781 32.0039H89.043C89.0664 32.4961 89.1992 32.8906 89.4414 33.1875C89.6836 33.4844 89.9883 33.6992 90.3555 33.832C90.7305 33.957 91.125 34.0195 91.5391 34.0195C92.0078 34.0195 92.4023 33.957 92.7227 33.832C93.043 33.6992 93.2852 33.5234 93.4492 33.3047C93.6133 33.0781 93.6953 32.8203 93.6953 32.5312ZM104.77 36.2344C103.809 36.2344 102.945 36.0781 102.18 35.7656C101.414 35.4531 100.762 35.0195 100.223 34.4648C99.6914 33.9023 99.2812 33.25 98.9922 32.5078C98.7109 31.7578 98.5703 30.9531 98.5703 30.0938V29.625C98.5703 28.6484 98.7109 27.7617 98.9922 26.9648C99.2734 26.1602 99.6719 25.4688 100.188 24.8906C100.703 24.3125 101.32 23.8672 102.039 23.5547C102.758 23.2422 103.551 23.0859 104.418 23.0859C105.316 23.0859 106.109 23.2383 106.797 23.543C107.484 23.8398 108.059 24.2617 108.52 24.8086C108.98 25.3555 109.328 26.0117 109.562 26.7773C109.797 27.5352 109.914 28.375 109.914 29.2969V30.5977H99.9766V28.4648H106.867V28.2305C106.852 27.7383 106.758 27.2891 106.586 26.8828C106.414 26.4688 106.148 26.1406 105.789 25.8984C105.43 25.6484 104.965 25.5234 104.395 25.5234C103.934 25.5234 103.531 25.625 103.188 25.8281C102.852 26.0234 102.57 26.3047 102.344 26.6719C102.125 27.0312 101.961 27.4609 101.852 27.9609C101.742 28.4609 101.688 29.0156 101.688 29.625V30.0938C101.688 30.625 101.758 31.1172 101.898 31.5703C102.047 32.0234 102.262 32.418 102.543 32.7539C102.832 33.082 103.176 33.3398 103.574 33.5273C103.98 33.707 104.441 33.7969 104.957 33.7969C105.605 33.7969 106.191 33.6719 106.715 33.4219C107.246 33.1641 107.707 32.7852 108.098 32.2852L109.656 33.9023C109.391 34.293 109.031 34.668 108.578 35.0273C108.133 35.3867 107.594 35.6797 106.961 35.9062C106.328 36.125 105.598 36.2344 104.77 36.2344Z" fill="#821A1A"/>
<rect x="2" y="2" width="188" height="52" rx="26" stroke="#821A1A" stroke-width="4"/>
</svg>
