<svg width="192" height="56" viewBox="0 0 192 56" fill="none" xmlns="http://www.w3.org/2000/svg">
<rect x="2" y="2" width="188" height="52" rx="26" fill="#821A1A"/>
<path d="M172.18 19.16L159 32.34L151.82 25.18L149 28L159 38L175 22L172.18 19.16ZM163 8C151.96 8 143 16.96 143 28C143 39.04 151.96 48 163 48C174.04 48 183 39.04 183 28C183 16.96 174.04 8 163 8ZM163 44C154.16 44 147 36.84 147 28C147 19.16 154.16 12 163 12C171.84 12 179 19.16 179 28C179 36.84 171.84 44 163 44Z" fill="white"/>
<path d="M66.4961 18.9375V36H63.2852V18.9375H66.4961ZM71.793 18.9375V21.4805H58.0469V18.9375H71.793ZM75.9766 25.9102V36H72.8828V23.3203H75.8125L75.9766 25.9102ZM79.832 23.2383L79.7852 26.1211C79.6133 26.0898 79.418 26.0664 79.1992 26.0508C78.9883 26.0352 78.7891 26.0273 78.6016 26.0273C78.125 26.0273 77.707 26.0938 77.3477 26.2266C76.9883 26.3516 76.6875 26.5352 76.4453 26.7773C76.2109 27.0195 76.0312 27.3164 75.9062 27.668C75.7812 28.0117 75.7109 28.4023 75.6953 28.8398L75.0273 28.7578C75.0273 27.9531 75.1094 27.207 75.2734 26.5195C75.4375 25.832 75.6758 25.2305 75.9883 24.7148C76.3008 24.1992 76.6914 23.8008 77.1602 23.5195C77.6367 23.2305 78.1836 23.0859 78.8008 23.0859C78.9727 23.0859 79.1562 23.1016 79.3516 23.1328C79.5547 23.1562 79.7148 23.1914 79.832 23.2383ZM89.0781 32.9883V23.3203H92.1953V36H89.2656L89.0781 32.9883ZM89.4766 30.3633L90.4375 30.3398C90.4375 31.1914 90.3438 31.9766 90.1562 32.6953C89.9688 33.4141 89.6758 34.0391 89.2773 34.5703C88.8867 35.0938 88.3906 35.5039 87.7891 35.8008C87.1875 36.0898 86.4766 36.2344 85.6562 36.2344C85.0312 36.2344 84.4609 36.1484 83.9453 35.9766C83.4297 35.7969 82.9844 35.5195 82.6094 35.1445C82.2422 34.7617 81.957 34.2734 81.7539 33.6797C81.5508 33.0781 81.4492 32.3555 81.4492 31.5117V23.3203H84.543V31.5352C84.543 31.957 84.5898 32.3086 84.6836 32.5898C84.7852 32.8711 84.9219 33.1016 85.0938 33.2812C85.2734 33.4531 85.4805 33.5781 85.7148 33.6562C85.957 33.7266 86.2148 33.7617 86.4883 33.7617C87.2383 33.7617 87.8281 33.6133 88.2578 33.3164C88.6953 33.0117 89.0078 32.6055 89.1953 32.0977C89.3828 31.582 89.4766 31.0039 89.4766 30.3633ZM100.633 36.2344C99.6719 36.2344 98.8086 36.0781 98.043 35.7656C97.2773 35.4531 96.625 35.0195 96.0859 34.4648C95.5547 33.9023 95.1445 33.25 94.8555 32.5078C94.5742 31.7578 94.4336 30.9531 94.4336 30.0938V29.625C94.4336 28.6484 94.5742 27.7617 94.8555 26.9648C95.1367 26.1602 95.5352 25.4688 96.0508 24.8906C96.5664 24.3125 97.1836 23.8672 97.9023 23.5547C98.6211 23.2422 99.4141 23.0859 100.281 23.0859C101.18 23.0859 101.973 23.2383 102.66 23.543C103.348 23.8398 103.922 24.2617 104.383 24.8086C104.844 25.3555 105.191 26.0117 105.426 26.7773C105.66 27.5352 105.777 28.375 105.777 29.2969V30.5977H95.8398V28.4648H102.73V28.2305C102.715 27.7383 102.621 27.2891 102.449 26.8828C102.277 26.4688 102.012 26.1406 101.652 25.8984C101.293 25.6484 100.828 25.5234 100.258 25.5234C99.7969 25.5234 99.3945 25.625 99.0508 25.8281C98.7148 26.0234 98.4336 26.3047 98.207 26.6719C97.9883 27.0312 97.8242 27.4609 97.7148 27.9609C97.6055 28.4609 97.5508 29.0156 97.5508 29.625V30.0938C97.5508 30.625 97.6211 31.1172 97.7617 31.5703C97.9102 32.0234 98.125 32.418 98.4062 32.7539C98.6953 33.082 99.0391 33.3398 99.4375 33.5273C99.8438 33.707 100.305 33.7969 100.82 33.7969C101.469 33.7969 102.055 33.6719 102.578 33.4219C103.109 33.1641 103.57 32.7852 103.961 32.2852L105.52 33.9023C105.254 34.293 104.895 34.668 104.441 35.0273C103.996 35.3867 103.457 35.6797 102.824 35.9062C102.191 36.125 101.461 36.2344 100.633 36.2344Z" fill="white"/>
<rect x="2" y="2" width="188" height="52" rx="26" stroke="#821A1A" stroke-width="4"/>
</svg>
